<?xml version="1.0" standalone="no"?>
<!DOCTYPE svg PUBLIC "-//W3C//DTD SVG 20010904//EN"
 "http://www.w3.org/TR/2001/REC-SVG-20010904/DTD/svg10.dtd">
<svg version="1.0" xmlns="http://www.w3.org/2000/svg"
 width="287.000000pt" height="277.000000pt" viewBox="0 0 287.000000 277.000000"
 preserveAspectRatio="xMidYMid meet">

<g transform="translate(0.000000,277.000000) scale(0.100000,-0.100000)"
fill="#000000" stroke="none">
<path d="M426 2688 c8 -142 15 -189 29 -194 13 -5 54 25 101 74 15 16 29 22
42 18 14 -5 26 3 46 28 44 58 31 76 -33 44 -23 -11 -44 -18 -47 -15 -3 3 -8
33 -11 66 l-6 61 -62 0 -63 0 4 -82z"/>
<path d="M900 2750 c13 -25 61 -50 94 -50 14 0 31 -9 40 -21 8 -12 36 -27 63
-34 42 -11 52 -11 77 4 16 9 31 22 34 29 5 15 -39 32 -84 32 -24 0 -34 4 -31
13 2 6 9 13 15 13 7 1 17 2 22 3 6 0 10 6 10 12 0 6 -7 8 -16 5 -8 -3 -12 -2
-9 4 4 6 -36 10 -110 10 -112 0 -115 -1 -105 -20z"/>
<path d="M1302 2718 c3 -53 3 -53 37 -54 23 -1 41 -9 53 -24 16 -20 21 -21 29
-9 5 7 9 20 9 27 0 16 41 15 65 -1 19 -15 75 -9 77 8 1 6 -17 20 -38 32 -21
13 -33 23 -26 23 6 0 12 11 12 25 l0 25 -111 0 -110 0 3 -52z"/>
<path d="M1726 2733 c-10 -64 -7 -81 14 -88 11 -3 23 -18 26 -33 4 -15 19 -52
35 -83 25 -50 26 -58 13 -71 -13 -13 -8 -15 48 -14 51 1 63 4 66 19 5 23 19
22 27 -3 3 -11 17 -23 31 -26 13 -4 31 -16 39 -27 13 -19 18 -20 35 -9 19 11
20 10 20 -33 0 -51 10 -56 38 -18 20 27 42 25 42 -5 0 -17 41 -42 67 -42 7 0
13 -7 13 -15 0 -8 7 -15 15 -15 9 0 15 -9 15 -23 0 -20 4 -23 34 -19 31 4 37
1 51 -29 56 -116 49 -111 120 -74 56 30 60 28 64 -25 0 -11 8 -20 17 -20 12 0
15 7 12 30 -3 17 -1 30 3 30 5 0 8 12 8 28 0 15 5 61 11 102 6 41 8 90 5 108
-3 17 -2 32 3 32 6 0 13 73 17 163 3 89 9 170 11 180 5 15 -5 17 -114 17
l-120 0 -7 -155 -7 -154 -29 14 c-15 8 -31 21 -36 27 -4 7 -6 70 -4 141 l2
127 -54 0 -54 0 -7 -61 c-3 -34 -6 -77 -6 -95 0 -34 -12 -42 -39 -25 -14 9
-18 124 -5 164 5 16 -6 17 -130 17 l-135 0 -3 -72 c-3 -81 -16 -94 -59 -60
-20 17 -23 28 -23 76 l1 56 -32 0 c-30 0 -33 -3 -39 -37z m778 -515 c31 -55
23 -67 -22 -32 -27 21 -32 32 -32 67 0 36 2 39 14 27 8 -8 26 -36 40 -62z"/>
<path d="M2701 2588 c-14 -196 -21 -265 -45 -451 -9 -65 -16 -171 -18 -235
l-2 -117 37 -68 c39 -72 57 -166 57 -296 0 -35 3 -62 6 -59 9 9 34 230 40 348
2 58 7 128 10 155 2 28 9 91 14 140 5 50 16 180 24 290 9 110 20 236 25 280 5
44 10 106 11 138 l1 57 -74 0 -73 0 -13 -182z"/>
<path d="M1630 2619 c-12 -22 -13 -116 -1 -123 5 -3 14 1 21 9 7 8 20 15 29
15 9 0 22 9 29 21 11 18 11 26 -2 54 -19 39 -61 53 -76 24z"/>
<path d="M753 1951 c-29 -10 -60 -24 -69 -32 -102 -85 -122 -346 -32 -422 43
-36 84 -47 196 -54 125 -8 211 14 249 64 52 68 39 263 -25 358 -57 85 -207
126 -319 86z"/>
<path d="M1985 1889 c-22 -5 -59 -14 -83 -19 -24 -6 -54 -7 -67 -4 -20 5 -28
-2 -59 -50 -50 -78 -45 -139 10 -128 30 5 32 -8 21 -124 -5 -56 -7 -114 -3
-129 6 -25 9 -26 51 -19 34 5 54 1 87 -14 56 -27 168 -38 240 -23 70 15 118
46 140 91 14 31 22 59 44 170 8 39 -63 168 -114 207 -63 48 -168 64 -267 42z"/>
<path d="M2 1226 l-2 -608 33 6 c17 3 43 8 56 11 31 6 39 14 45 48 3 16 10 35
17 43 6 7 9 26 6 41 -4 16 -10 48 -15 73 -4 25 -16 56 -25 70 -9 14 -17 45
-18 70 -2 25 -7 48 -13 52 -6 4 -5 21 4 49 16 47 16 63 7 235 -5 111 -19 174
-38 174 -4 0 -11 15 -14 33 -4 17 -12 38 -19 46 -6 8 -13 70 -17 140 -3 69 -6
-148 -7 -483z"/>
<path d="M2718 1280 c-3 -30 -18 -78 -32 -105 -30 -61 -43 -119 -45 -204 -1
-36 -7 -87 -13 -115 -6 -28 -12 -71 -12 -96 l-1 -45 45 -5 c25 -3 71 -18 102
-34 40 -20 64 -27 82 -22 24 6 26 10 26 69 l0 63 -37 1 c-73 3 -128 15 -140
31 -15 18 -18 218 -4 226 5 3 12 27 16 53 3 27 11 64 16 83 6 19 9 62 7 95
l-3 60 -7 -55z"/>
<path d="M1268 984 c-18 -17 -6 -45 30 -67 51 -33 68 -67 55 -111 -13 -43 -6
-84 17 -96 14 -7 25 -3 48 19 16 16 47 37 68 46 22 9 50 22 64 28 14 7 47 33
74 59 44 43 48 50 42 81 -8 44 -23 48 -146 40 -112 -8 -140 -7 -200 2 -25 4
-48 3 -52 -1z"/>
<path d="M1242 608 c-18 -5 -89 -10 -159 -11 -136 -2 -151 -9 -112 -48 20 -20
29 -21 118 -17 53 3 141 -1 196 -8 55 -7 141 -14 191 -14 68 0 95 -4 104 -15
19 -23 92 -29 161 -11 72 18 68 15 71 46 4 28 -20 37 -98 39 -28 1 -64 5 -80
11 -30 10 -222 31 -310 34 -28 1 -65 -2 -82 -6z"/>
<path d="M1238 378 c-41 -9 -48 -14 -48 -34 0 -15 7 -27 18 -30 9 -3 26 -10
37 -14 50 -21 99 -29 221 -34 109 -4 134 -3 153 10 12 9 33 14 46 12 23 -5 23
-4 7 18 -9 13 -20 24 -24 24 -5 0 -8 9 -8 20 0 13 -10 24 -26 30 -32 13 -314
11 -376 -2z"/>
</g>
</svg>
