<?xml version="1.0" standalone="no"?>
<!DOCTYPE svg PUBLIC "-//W3C//DTD SVG 20010904//EN"
 "http://www.w3.org/TR/2001/REC-SVG-20010904/DTD/svg10.dtd">
<svg version="1.0" xmlns="http://www.w3.org/2000/svg"
 width="128.000000pt" height="128.000000pt" viewBox="0 0 128.000000 128.000000"
 preserveAspectRatio="xMidYMid meet">

<g transform="translate(0.000000,128.000000) scale(0.100000,-0.100000)"
fill="#000000" stroke="none">
<path d="M475 1241 c-212 -61 -385 -237 -439 -447 -21 -80 -21 -228 0 -308 56
-216 242 -400 455 -451 82 -19 216 -19 297 0 220 52 405 238 457 457 19 81 19
215 0 296 -52 218 -230 399 -452 456 -82 21 -239 20 -318 -3z m288 -19 c153
-68 221 -253 149 -407 -51 -106 -133 -159 -272 -175 -188 -21 -290 -122 -298
-293 -4 -72 -1 -84 27 -142 33 -67 76 -110 146 -146 l40 -21 -40 7 c-204 35
-404 226 -466 445 -7 25 -13 92 -13 150 0 118 10 163 60 268 40 82 136 192
213 241 62 40 157 79 224 91 73 13 179 5 230 -18z m-65 -838 c28 -31 28 -64 1
-98 -29 -37 -89 -37 -118 0 -25 32 -27 62 -5 92 33 47 82 49 122 6z"/>
<path d="M581 994 c-27 -35 -26 -66 2 -100 17 -20 33 -27 57 -27 24 0 40 7 57
27 28 34 29 65 2 100 -16 20 -29 26 -59 26 -30 0 -43 -6 -59 -26z"/>
</g>
</svg>
